<?xml version="1.0" encoding="utf-8"?>
<!-- Generator: Adobe Illustrator 25.4.1, SVG Export Plug-In . SVG Version: 6.00 Build 0)  -->
<svg version="1.1" id="Capa_1" xmlns="http://www.w3.org/2000/svg" xmlns:xlink="http://www.w3.org/1999/xlink" x="0px" y="0px"
	 viewBox="0 0 1357.43 540.99" style="enable-background:new 0 0 1357.43 540.99;" xml:space="preserve">
<style type="text/css">
	.st0{fill:#0A3965;}
	.st1{fill-rule:evenodd;clip-rule:evenodd;fill:#0A3965;}
</style>
<g>
	<g>
		<path class="st0" d="M21.48,65.92v7.79v235.33c0,0.5,0.58,33.79,17.02,65.4c8.43,16.21,21.03,32.1,39.83,43.26
			c16.62,9.86,30.68,17.75,43.1,24.72l0.42,0.24l0,0l0.04,0.03c20.65,11.58,37.77,21.18,50.16,31.6l4.91,4.13l0.01-0.01l4.91-4.12
			c6.18-5.19,13.47-10.15,21.76-15.24c8.26-5.07,17.91-10.48,28.45-16.39l0.68-0.38c12.35-6.93,26.34-14.78,42.84-24.58
			c18.79-11.16,31.38-27.03,39.81-43.22c16.45-31.61,17.04-65.33,17.04-65.33V73.71v-7.79 M176.97,65.92 M317.04,309.15
			c-0.04,1.8-0.85,30.45-15.24,58.09c-7.28,13.98-18.05,27.62-33.97,37.07c-16.09,9.55-30.14,17.44-42.54,24.4l-0.68,0.38
			c-10.45,5.86-20,11.22-28.93,16.7c-6.84,4.2-13.09,8.35-18.71,12.64l0,0c-12.82-9.81-28.79-18.77-47.6-29.32l0,0l-0.04-0.03
			l-0.42-0.24c-12.47-7-26.59-14.92-42.8-24.54c-15.93-9.46-26.71-23.12-33.99-37.12c-14.58-28.03-15.19-57.06-15.19-57.06
			l-0.03-1.09V81.5h140.07h140.07"/>
		<g>
			<g>
				<path class="st0" d="M103.77,213.65c-9.02,2.12-18.87,8.4-18.87,8.4c9.53-12.06,15.06-18.36,25.19-24.39
					c2.95-1.76,6.3-3.49,10.25-5.34c-3.83-0.16-7.22,0.03-10.25,0.48c-24.15,3.57-25.43,23.82-43.24,19.57
					c-0.03,7.19,4.31,10.9,9.59,10.63c-2.81,8.9-5.06,19.68-3.26,27.22c0,0,2.52-9.76,12.6-18.72c-4.78,20.53-1.7,45.6,10.12,61.62
					C89.48,270.93,90.69,238.99,103.77,213.65z"/>
				<path class="st0" d="M287.55,217.14c-4.37-2.34-5.94-2.86-6.36-4.47c-0.34-1.27,1.98-1.45,3.74-0.86
					c2.39,0.8,5.28,1.31,6.83-2.59c0.94-2.92,0.46-5.56,0.46-5.56s-21.65,0-29.24,0c-7.65,0-11.84,4.27-11.84,4.27
					c-6.82-9.02-17.7-14.31-29.7-17.13c-9.18-2.16-19.03-2.87-28.2-2.69c-16.82,11.04-10.22,25.66-1.3,36.17
					c-7.2,2.07-14.43,3.84-21.13,7.35c-1.38,0.78-2.7,1.64-3.97,2.57c-22.36,16.27-28.06,53.84-3.62,70
					c-2.42-7.02-3.87-18.18-0.15-24.83c1.08,2.54,2.36,4.9,3.78,7.12c14.53,22.77,44.19,31.34,36.1,76.01
					c9.88-9.51,16.08-21.91,18.5-34c1.29-6.42,1.51-12.75,0.65-18.51c1.73,0.17,3.03-0.54,3.87-1.82c-1-0.68-2.66-2.31-4.53-4.63
					c-2.74-3.4-5.9-8.28-7.96-13.74c-16.73-7.71-13.46-18.29-13.46-18.29c4.93,8.17,12.07,10.37,12.57,10.52
					c2.78,0.69,5.77,1.04,8.85,0.94c6.02-0.21,12.35-2.17,18.02-6.77c11.38-0.75,20.55,17.65,23.61,17.65
					c5.3-4.45,9.56-9.61,12.56-14.64c1.09-1.81-1.8-3.44-0.4-4.96c2.36-2.56,4.43-5.81,5.66-9.58c-3.27,2.17-8.82,4.68-13.53,4.68
					c-10.24,0-16.59-7.17-16.58-15.42c0-7.55,4.08-13.04,10.42-15.41c7.29-2.73,14.56-0.58,19,3.54c2.17,2.02,4.14,4.74,4.97,8.01
					c4.76-9.81,0.42-10.6,3.14-14.38c1.61-2.24,3.48-5.26,3.6-10.85C291.9,222.81,291.7,219.35,287.55,217.14z M228.43,215.96
					c-2.99-1.03-5.3-1.91-6.99-2.71c-3.78-1.81-4.39-3.24-2.46-5.28c-4.72,0.56-7.54,2.16-7.54,2.16c3.08-3.29,6.7-5.22,10-6.36
					c5.33-1.84,9.82-1.6,9.82-1.6S232.5,210.3,228.43,215.96z"/>
				<path class="st0" d="M166.84,224.44c2.59-0.95,5.37-1.58,8.36-1.86c-5.04-9.38-7.75-29.54,11.18-34.18
					c-6.15,0.42-13.05,0.99-19.54,2.23c-3.51,0.68-6.91,1.55-9.99,2.71c-5.56-5.7-14.05-7.49-21.23-5.63
					c-16.68,4.32-20.42,28.37-10.65,41.62c-5.43-0.75-10.51-3.13-12.54-9.08c-0.75,1.21-1.53,2.58-2.33,4.08
					c-8.37,15.76-18.11,46.48,0,66.56c0.4,0.45,0.82,0.89,1.25,1.33c-0.47-1.06-0.89-2.17-1.25-3.32c-2.44-7.72-2.42-17.13,0-26.39
					c2.87-10.99,9.1-21.77,18.58-29.24c-12.33-27.02,9.93-50.85,25.51-26.82c0,0-1.94,1.12-5.26,5.14
					c-11.2-7.33-18.68,8.06-16.05,18.48c4.66-5.67,15.83-8.82,24.92-10.45c-12.41,9.91-15.1,25.56-14.47,34.28
					C146.99,240.32,154.7,228.9,166.84,224.44z"/>
			</g>
			<path class="st1" d="M174.39,309.04c4.72,21.86-0.46,24.4-7.86,19.46c-25.18-16.64-43.97-59.75-26.95-91.39
				c-41.3,40.29-13.02,82.81,9.52,112.07c-13.57-8.03-33.18-24.09-44.42-54.4c-0.75,7.54-1.34,14.95-1.93,21.39
				c-9.78-6.19-25.4-34.93-24.1-63.64c-15.58,31.91-7.27,81.03,9.73,98.51c-3.56-13.48-1.57-21.26-0.86-30.57
				c4.97,23.99,20.5,40.4,38.96,50c0,0-4.63-9.53-7.88-22.31c26.15,16.35,61.4,24.03,54.93,66.16
				C201.47,380.46,201.94,338.94,174.39,309.04z"/>
			<g>
				<path class="st0" d="M230.9,130.43c-0.12-2.57-2.36-4.54-5.2-4.46c-2.84,0.08-5.07,2.28-5.07,4.83
					c0.02,2.42,1.86,4.33,4.35,4.73c-1.9,3.46-7.37,7.42-16.3,6.12l-0.33-0.06c-6.72-1.28-5.97-7.48-4.5-11.73
					c1.82-0.16,3.42-1.02,4.5-2.28c0.86-1,1.38-2.26,1.42-3.63c-0.02-1.33-0.55-2.55-1.42-3.49c-1.15-1.25-2.9-2.02-4.83-1.95
					c-3.36,0-6.07,2.66-6.03,5.75c0.01,1.61,0.61,2.92,1.66,3.89c-1.83,2.04-4.51,3.57-7.46,4.52c-8.94,2.86-20.44,0.41-18.81-9.13
					c1.1,0.71,2.38,1.05,3.87,1.02c3.51-0.11,6.35-2.75,6.35-6.1c0-3.36-2.94-5.98-6.45-5.87c-0.96,0.11-1.92,0.23-2.66,0.65
					c2.44-5.54,0.91-8.75-5.01-16.58l-0.77-1.01c-6.4,8.92-8.15,12.27-5.41,17.81c-0.9-0.28-1.79-0.56-2.75-0.44
					c-3.51,0.11-6.35,2.74-6.35,6.1c0,3.36,2.94,5.98,6.45,5.87c1.48-0.03,2.9-0.48,3.96-1.25c1.86,9.54-10.13,12.47-19.22,9.78
					c-2.8-0.83-5.33-2.19-7.09-4.05c1.11-1.03,1.73-2.41,1.7-3.89c-0.04-3.1-2.72-5.68-6.23-5.57c-3.32,0.13-5.97,2.56-6.03,5.58
					l0,0.17l0,0.03c0.06,3.08,2.75,5.52,5.95,5.63c1.6,4.29,2.47,10.61-4.61,12.03c-0.45,0.09-0.9,0.16-1.33,0.21
					c-8.1,1.08-13.22-2.43-15.13-5.67c2.48-0.41,4.41-2.38,4.4-4.8c-0.1-2.71-2.45-4.83-5.29-4.74c-2.7,0.1-5.05,2.15-5.05,4.7
					c-2.92-0.2-6.88-0.7-12.23-2.5c0,0,16.4,12.57,21.91,22.59c1.66,3.09,2.76,7.97,3.55,13.07c2.55-0.9,5.16-1.74,7.84-2.51
					c5.64-1.63,11.54-2.96,17.65-3.96c7.65-1.25,15.63-1.99,23.87-2.16l0.22,0c7.81-0.14,15.4,0.21,22.71,1.04
					c5.75,0.65,11.31,1.58,16.66,2.79c3.39,0.77,6.7,1.64,9.9,2.62c0.69-5.13,1.75-10.07,3.34-13.31
					c5.26-10.18,21.49-23.43,21.49-23.43C237.79,129.39,233.8,129.96,230.9,130.43z M127.24,155.96L127.24,155.96
					c-1.43,0-2.59-1.16-2.59-2.59c0-1.43,1.16-2.59,2.59-2.59h0c1.43,0,2.59,1.16,2.59,2.59
					C129.82,154.8,128.67,155.96,127.24,155.96z M145.51,152.9c-0.21-0.14-0.42-0.27-0.63-0.4c-2.21-1.34-3.9-1.86-6.43-2.37
					c2.41-1.28,3.99-2.39,5.8-4.58c0.22,0.14,0.42,0.27,0.63,0.4c2.19,1.35,3.82,1.94,6.43,2.36
					C148.82,149.68,147.33,150.71,145.51,152.9z M168.97,152.54c-4.03,0-7.3-3.27-7.3-7.3c0-4.03,3.27-7.3,7.3-7.3s7.3,3.27,7.3,7.3
					C176.27,149.27,173.01,152.54,168.97,152.54z M191.69,151.25c-0.21,0.12-0.41,0.26-0.63,0.4c-1.81-2.2-3.31-3.22-5.8-4.59
					c2.61-0.43,4.23-1.01,6.43-2.36c0.2-0.13,0.41-0.26,0.63-0.4c1.81,2.19,3.39,3.3,5.8,4.58
					C195.58,149.39,193.89,149.9,191.69,151.25z M208.34,154.14c-1.43,0-2.59-1.16-2.59-2.59c0-1.43,1.16-2.59,2.59-2.59
					c1.43,0,2.59,1.16,2.59,2.59C210.93,152.98,209.77,154.14,208.34,154.14z"/>
				<path class="st0" d="M217.36,175.71c0.12-2.35,0.19-4.8,0.48-7.33c-3.06-0.95-6.23-1.79-9.49-2.54
					c-5.33-1.22-10.9-2.16-16.66-2.82c-7.31-0.83-14.91-1.19-22.71-1.03l-0.24,0c-8.24,0.17-16.22,0.93-23.85,2.21
					c-6.13,1.02-12.03,2.37-17.65,4.02c-2.49,0.73-4.93,1.52-7.31,2.36c0.31,2.54,0.57,5.75,0.79,8.58
					c-3.58,2.49-7.13,6.78-10.23,10.07c5.47-3.13,11.16-5.39,16.74-6.75c6.18-1.51,12.23-1.92,17.65-1.19
					c6.02,0.82,11.28,3.05,15.13,6.77c-1.02-3.14-2.28-5.41-5.13-8.35c3.7,0.13,8.66,0.36,14.08,0.68
					c7.37,0.44,15.6,1.06,22.71,1.88c4.46,0.51,8.49,1.11,11.59,1.78c-1.17-2.59-3.05-4.48-5.11-6.65
					c4.04,0.83,7.32,1.58,10.17,2.38c7.95,2.23,12.62,4.82,21.36,10.3C226.76,185.28,225.5,181.89,217.36,175.71z"/>
			</g>
		</g>
	</g>
	<rect x="425.95" y="16.88" class="st0" width="15.42" height="508.27"/>
	<g>
		<g>
			<polygon class="st0" points="591,136.17 542.58,136.17 542.58,356.66 687.54,356.66 687.54,314.33 591,314.33 			"/>
			<polygon class="st0" points="994.53,114.54 1029.86,64.6 988.44,64.6 987.83,65.79 962.86,114.54 987.83,114.54 			"/>
			<path class="st0" d="M1286.59,136.17v81.92c0,10.66,0.1,21.32,0.2,31.93c0.1,10.66,0.25,21.22,0.41,31.72l-0.61,0.31
				c-6.8-9.59-13.65-19.09-20.46-28.48c-6.85-9.44-13.81-18.93-20.96-28.48l-66.09-88.93h-45.68v220.49h46.6v-81.92
				c0-10.66-0.05-21.32-0.2-31.93c-0.1-10.66-0.25-21.22-0.41-31.72l0.61-0.3c6.8,9.54,13.65,19.03,20.51,28.48
				c6.8,9.39,13.81,18.88,20.91,28.48l66.09,88.93h45.68V136.17H1286.59z"/>
			<path class="st0" d="M1081.28,178.65c-6.9-9.39-15.13-17.51-24.62-24.36c-9.54-6.85-20.1-12.13-31.72-15.84
				c-11.57-3.7-23.96-5.58-37.1-5.63h0c-13.15,0.05-25.53,1.93-37.1,5.63c-11.62,3.71-22.18,8.98-31.72,15.84
				c-9.49,6.85-17.72,14.97-24.62,24.36c-6.9,9.44-12.23,19.85-15.99,31.27c-3.76,11.42-5.63,23.6-5.68,36.5
				c0.05,12.89,1.93,25.08,5.68,36.5c3.76,11.42,9.09,21.83,15.99,31.27c6.9,9.39,15.13,17.51,24.62,24.36
				c9.54,6.85,20.1,12.08,31.72,15.84c11.57,3.7,23.96,5.58,37.1,5.63h0c13.15-0.05,25.53-1.93,37.1-5.63
				c11.62-3.76,22.18-8.99,31.72-15.84c9.49-6.85,17.71-14.97,24.62-24.36c6.9-9.44,12.23-19.85,15.99-31.27
				c3.76-11.42,5.63-23.6,5.69-36.5c-0.05-12.89-1.93-25.07-5.69-36.5C1093.51,198.5,1088.18,188.09,1081.28,178.65z
				 M1049.45,273.77c-3.3,8.43-7.97,15.78-14.01,22.13c-5.99,6.35-13.05,11.27-21.12,14.82c-8.12,3.55-16.9,5.38-26.49,5.43h0
				c-9.54-0.05-18.37-1.88-26.5-5.43c-8.07-3.55-15.13-8.48-21.11-14.82c-6.04-6.35-10.71-13.7-14.01-22.13
				c-3.35-8.43-5.03-17.56-5.08-27.36c0.05-9.8,1.73-18.93,5.08-27.36c3.3-8.43,7.97-15.79,14.01-22.13
				c5.99-6.35,13.04-11.32,21.11-14.82c8.12-3.55,16.95-5.38,26.5-5.43h0c9.59,0.05,18.37,1.88,26.49,5.43
				c8.07,3.5,15.13,8.48,21.12,14.82c6.04,6.34,10.71,13.71,14.01,22.13c3.35,8.43,5.02,17.56,5.08,27.36
				C1054.48,256.21,1052.8,265.35,1049.45,273.77z"/>
			<polygon class="st0" points="760.03,261.95 835.56,261.95 835.56,221.74 760.03,221.74 760.03,178.5 847.74,178.5 847.74,136.17 
				711.6,136.17 711.6,356.66 851.09,356.66 851.09,314.33 760.03,314.33 			"/>
		</g>
		<g>
			<path class="st0" d="M765.33,409.67h-3.58L746,448.07l-2,4.88h2h5.83l4.18-10.58h9.32h9.32l4.12,10.58h8.07l-17.69-43.27H765.33z
				 M772.21,436.15h-6.87h-6.87l2.51-6.51c0.75-1.93,1.46-3.85,2.17-5.76c0.71-1.9,1.41-3.84,2.13-5.84h0.06h0.06
				c0.69,1.94,1.39,3.87,2.11,5.8c0.72,1.92,1.44,3.85,2.19,5.8L772.21,436.15z"/>
			<polygon class="st0" points="867.12,433.64 882.96,433.64 882.96,427.19 867.12,427.19 867.12,416.43 885.35,416.43 
				885.35,409.67 859.53,409.67 859.53,452.95 885.95,452.95 885.95,446.19 867.12,446.19 			"/>
			<path class="st0" d="M812.97,429.82l-14.1-20.14h-7.35v43.27h7.35v-21.4c0-1.64,0-3.25-0.01-4.8c0-1.57-0.02-3.09-0.05-4.58
				l0.12-0.06c0.9,1.37,1.82,2.74,2.78,4.11c0.96,1.37,1.94,2.8,2.96,4.25l8.13,11.59l8.13-11.59c1.02-1.45,2-2.88,2.96-4.25
				c0.96-1.37,1.88-2.75,2.78-4.11l0.12,0.06c-0.03,1.49-0.04,3.02-0.05,4.58c-0.01,1.55-0.01,3.16-0.01,4.8v21.4h7.59v-43.27h-7.23
				L812.97,429.82z"/>
			<rect x="843.15" y="409.67" class="st0" width="7.59" height="43.27"/>
			<path class="st0" d="M699.17,427.84c0,2.3,0,4.55,0.02,6.74c0.01,2.19,0.04,4.31,0.1,6.35l-0.12,0.06
				c-1.25-1.73-2.51-3.46-3.79-5.19c-1.28-1.72-2.58-3.49-3.92-5.27l-15.66-20.86h-7.17v43.27h7.35v-18.17c0-2.3,0-4.55-0.02-6.74
				c-0.01-2.19-0.04-4.31-0.1-6.35l0.12-0.06c1.26,1.72,2.51,3.46,3.79,5.18c1.27,1.73,2.58,3.49,3.92,5.28l15.66,20.86h7.17v-43.27
				h-7.35V427.84z"/>
			<polygon class="st0" points="748,416.43 748,409.67 746,409.67 711.96,409.67 711.96,416.43 726.12,416.43 726.12,452.95 
				733.72,452.95 733.72,416.43 746,416.43 			"/>
			<path class="st0" d="M652.97,432.03c0.02,2.35-0.1,4.36-0.35,6.04c-0.25,1.67-0.71,3.09-1.38,4.24c-0.77,1.35-1.86,2.42-3.3,3.19
				c-1.44,0.77-3.29,1.17-5.55,1.18c-1.66-0.01-3.1-0.22-4.28-0.62c-1.19-0.41-2.18-0.95-2.97-1.63c-0.79-0.68-1.42-1.44-1.89-2.29
				c-0.42-0.73-0.75-1.56-1-2.5c-0.24-0.95-0.42-2.04-0.52-3.31c-0.11-1.25-0.16-2.73-0.16-4.41v-22.23h-7.59v22.71
				c-0.01,1.95,0.08,3.78,0.26,5.5c0.18,1.7,0.49,3.29,0.94,4.74c0.45,1.46,1.07,2.79,1.85,3.98c0.96,1.47,2.17,2.71,3.64,3.76
				c1.46,1.04,3.16,1.83,5.08,2.39c1.91,0.56,4.03,0.84,6.35,0.85c2.24,0,4.31-0.27,6.24-0.8c1.91-0.53,3.62-1.3,5.13-2.33
				c1.5-1.02,2.75-2.27,3.76-3.75c0.81-1.21,1.44-2.56,1.89-4.04c0.46-1.48,0.78-3.12,0.96-4.9c0.18-1.79,0.27-3.75,0.26-5.88
				v-22.23h-7.35V432.03z"/>
			<path class="st0" d="M605.69,418.7c-0.96,1.41-1.9,2.82-2.84,4.21c-0.93,1.39-1.81,2.74-2.66,4.03h-0.12
				c-0.84-1.28-1.71-2.61-2.63-3.98c-0.92-1.36-1.85-2.75-2.81-4.15l-6.28-9.15h-5.89h-2.96l2.96,4.19l13.78,19.53v19.54h7.59
				v-19.61l16.56-23.67h-8.55L605.69,418.7z"/>
			<path class="st0" d="M567.74,409.67h-3.82h-3.59l-17.75,43.27h7.83l4.18-10.58h9.32h9.32l4.12,10.58h5.11h2.96l-2.96-7.24
				L567.74,409.67z M563.91,436.15h-6.87l2.51-6.51c0.75-1.93,1.46-3.85,2.17-5.76c0.71-1.9,1.42-3.84,2.13-5.84h0.06h0.06
				c0.69,1.94,1.4,3.87,2.11,5.8c0.72,1.92,1.44,3.85,2.19,5.8l2.51,6.51H563.91z"/>
			<path class="st0" d="M1326.08,436.93v-27.25h-6.87l-5.77,8.66l-16.41,24.63l0.06,0.12h16.35h5.17v9.86h7.47v-9.86h7.11v-6.16
				H1326.08z M1318.67,423.54c-0.01,0.92-0.03,1.87-0.04,2.85c-0.01,0.99-0.02,1.94-0.02,2.89v7.65h-5.17h-5.23l-0.06-0.12
				l5.29-7.93l0.21-0.31c0.57-0.85,1.14-1.71,1.72-2.61c0.59-0.9,1.16-1.77,1.71-2.63c0.56-0.87,1.07-1.66,1.52-2.41l0.12,0.06
				C1318.71,421.76,1318.69,422.61,1318.67,423.54z"/>
			<rect x="1174.98" y="433.34" class="st0" width="14.46" height="6.1"/>
			<path class="st0" d="M1206.42,446.07l6.34-7.95c1.6-2,2.96-3.9,4.07-5.67c1.13-1.78,1.98-3.53,2.57-5.24
				c0.59-1.7,0.89-3.45,0.89-5.23c-0.01-2.05-0.39-3.87-1.14-5.48c-0.75-1.6-1.77-2.97-3.1-4.07c-1.32-1.12-2.86-1.96-4.61-2.54
				c-1.75-0.58-3.65-0.88-5.68-0.88c-1.51,0.01-2.92,0.16-4.21,0.45c-1.3,0.29-2.47,0.67-3.53,1.13c-1.06,0.47-1.98,0.98-2.78,1.52
				v7.29c1.07-0.78,2.16-1.42,3.29-1.95c1.14-0.52,2.26-0.92,3.39-1.18c1.13-0.27,2.2-0.4,3.25-0.4c1.49,0,2.79,0.26,3.91,0.77
				c1.12,0.51,1.99,1.26,2.61,2.25c0.63,1,0.95,2.22,0.96,3.68c0,1.2-0.25,2.42-0.75,3.68c-0.49,1.26-1.24,2.63-2.25,4.12
				c-1.01,1.48-2.28,3.2-3.82,5.11l-13.75,17.33l0.06,0.12h29.7v-6.75h-15.36L1206.42,446.07z"/>
			<path class="st0" d="M1277.91,446.07l6.33-7.95c1.6-2,2.96-3.9,4.07-5.67c1.13-1.78,1.98-3.53,2.57-5.24
				c0.59-1.7,0.89-3.45,0.89-5.23c-0.01-2.05-0.39-3.87-1.14-5.48c-0.75-1.6-1.77-2.97-3.1-4.07c-1.32-1.12-2.86-1.96-4.61-2.54
				c-1.75-0.58-3.65-0.88-5.68-0.88c-1.51,0.01-2.92,0.16-4.21,0.45c-1.3,0.29-2.47,0.67-3.53,1.13c-1.06,0.47-1.98,0.98-2.78,1.52
				v7.29c1.07-0.78,2.16-1.42,3.29-1.95c1.14-0.52,2.26-0.92,3.39-1.18c1.13-0.27,2.2-0.4,3.25-0.4c1.48,0,2.79,0.26,3.91,0.77
				c1.12,0.51,1.99,1.26,2.61,2.25c0.63,1,0.95,2.22,0.96,3.68c0,1.2-0.25,2.42-0.75,3.68c-0.49,1.26-1.25,2.63-2.25,4.12
				c-1.01,1.48-2.28,3.2-3.82,5.11l-13.75,17.33l0.06,0.12h29.7v-6.75h-15.36L1277.91,446.07z"/>
			<polygon class="st0" points="1145.46,422.47 1154.84,419 1154.84,452.95 1162.43,452.95 1162.43,409.02 1145.46,415.35 			"/>
			<path class="st0" d="M1254.95,414.58c-0.9-1.22-1.94-2.24-3.12-3.06c-1.17-0.83-2.45-1.46-3.83-1.87
				c-1.38-0.42-2.83-0.63-4.35-0.63c-1.52,0-2.97,0.21-4.35,0.63c-1.38,0.42-2.65,1.05-3.83,1.87c-1.18,0.82-2.21,1.84-3.12,3.06
				c-1.37,1.87-2.39,4.18-3.06,6.93c-0.68,2.75-1.01,6.02-1.01,9.8c0,3.79,0.33,7.05,1.01,9.8c0.67,2.75,1.68,5.06,3.06,6.93
				c0.91,1.22,1.94,2.24,3.12,3.06c1.17,0.83,2.45,1.46,3.83,1.87c1.38,0.42,2.83,0.63,4.35,0.63c1.52,0,2.97-0.21,4.35-0.63
				c1.37-0.42,2.66-1.05,3.83-1.87c1.17-0.82,2.22-1.84,3.12-3.06c1.38-1.87,2.39-4.18,3.07-6.93c0.67-2.75,1-6.02,1-9.8
				c0-3.79-0.33-7.05-1-9.8C1257.35,418.76,1256.33,416.45,1254.95,414.58z M1251.2,436.39c-0.15,1.6-0.42,3.07-0.8,4.38
				c-0.38,1.31-0.89,2.42-1.54,3.33c-0.6,0.82-1.32,1.45-2.19,1.92c-0.87,0.46-1.87,0.7-3.01,0.71c-1.14-0.01-2.13-0.25-3-0.71
				c-0.87-0.47-1.6-1.11-2.2-1.92c-0.66-0.91-1.16-2.01-1.54-3.33c-0.38-1.32-0.64-2.78-0.8-4.38c-0.16-1.6-0.24-3.3-0.23-5.08
				c-0.01-1.78,0.07-3.48,0.23-5.08c0.16-1.61,0.42-3.07,0.8-4.38c0.38-1.32,0.89-2.42,1.54-3.33c0.6-0.82,1.34-1.45,2.2-1.92
				c0.87-0.47,1.86-0.7,3-0.71c1.14,0.01,2.14,0.24,3.01,0.71c0.87,0.47,1.59,1.11,2.19,1.92c0.66,0.91,1.17,2.01,1.54,3.33
				c0.38,1.32,0.65,2.77,0.8,4.38c0.16,1.6,0.24,3.3,0.23,5.08C1251.44,433.09,1251.36,434.79,1251.2,436.39z"/>
			<polygon class="st0" points="936.03,416.43 950.2,416.43 950.2,452.95 957.79,452.95 957.79,416.43 972.07,416.43 972.07,409.67 
				936.03,409.67 			"/>
			<path class="st0" d="M1014.81,418.01c-1.34-1.84-2.92-3.44-4.76-4.78c-1.84-1.35-3.88-2.38-6.14-3.11
				c-2.25-0.73-4.65-1.1-7.21-1.11h0c-2.55,0.01-4.96,0.38-7.2,1.11c-2.25,0.73-4.3,1.76-6.15,3.11c-1.84,1.34-3.43,2.94-4.76,4.78
				c-1.33,1.85-2.36,3.9-3.09,6.14c-0.72,2.24-1.09,4.63-1.1,7.16c0.01,2.53,0.38,4.92,1.1,7.16c0.73,2.24,1.75,4.28,3.09,6.14
				c1.34,1.84,2.92,3.44,4.76,4.78c1.84,1.35,3.89,2.37,6.15,3.11c2.24,0.73,4.65,1.1,7.2,1.11h0c2.56-0.01,4.96-0.38,7.21-1.11
				c2.25-0.74,4.29-1.76,6.14-3.11c1.84-1.34,3.43-2.94,4.76-4.78c1.33-1.85,2.37-3.9,3.09-6.14c0.73-2.24,1.08-4.63,1.1-7.16
				c-0.01-2.53-0.37-4.92-1.1-7.16C1017.18,421.91,1016.14,419.87,1014.81,418.01z M1010.29,437.34c-0.74,1.86-1.76,3.49-3.09,4.88
				c-1.31,1.39-2.87,2.48-4.65,3.27c-1.78,0.78-3.73,1.17-5.86,1.19h0c-2.12-0.01-4.06-0.41-5.85-1.19
				c-1.79-0.79-3.35-1.87-4.66-3.27c-1.32-1.39-2.35-3.02-3.08-4.88c-0.74-1.85-1.11-3.86-1.12-6.03c0.01-2.16,0.38-4.17,1.12-6.04
				c0.73-1.85,1.75-3.48,3.08-4.87c1.32-1.4,2.87-2.48,4.66-3.27c1.78-0.78,3.72-1.17,5.85-1.19h0c2.12,0.01,4.07,0.41,5.86,1.19
				c1.78,0.79,3.34,1.87,4.65,3.27c1.32,1.39,2.35,3.02,3.09,4.87c0.73,1.86,1.1,3.87,1.11,6.04
				C1011.39,433.47,1011.02,435.49,1010.29,437.34z"/>
			<path class="st0" d="M923.24,427.84c0,2.3,0,4.55,0.02,6.74c0.01,2.19,0.04,4.31,0.1,6.35l-0.12,0.06
				c-1.24-1.73-2.51-3.46-3.79-5.19c-1.27-1.72-2.58-3.49-3.93-5.27l-15.66-20.86h-7.17v43.27h7.35v-18.17c0-2.3,0-4.55-0.02-6.74
				c-0.01-2.19-0.04-4.31-0.1-6.35l0.12-0.06c1.26,1.72,2.51,3.46,3.78,5.18c1.28,1.73,2.58,3.49,3.92,5.28l15.66,20.86h7.17v-43.27
				h-7.35V427.84z"/>
			<path class="st0" d="M1051.14,446.07l6.34-7.95c1.6-2,2.96-3.9,4.07-5.67c1.13-1.78,1.98-3.53,2.57-5.24
				c0.59-1.7,0.89-3.45,0.89-5.23c-0.01-2.05-0.39-3.87-1.14-5.48c-0.75-1.6-1.77-2.97-3.1-4.07c-1.32-1.12-2.86-1.96-4.61-2.54
				c-1.75-0.58-3.65-0.88-5.68-0.88c-1.51,0.01-2.92,0.16-4.21,0.45c-1.29,0.29-2.47,0.67-3.53,1.13c-1.06,0.47-1.98,0.98-2.78,1.52
				v7.29c1.07-0.78,2.16-1.42,3.29-1.95c1.14-0.52,2.26-0.92,3.39-1.18c1.12-0.27,2.2-0.4,3.25-0.4c1.48,0,2.79,0.26,3.91,0.77
				c1.11,0.51,1.99,1.26,2.61,2.25c0.63,1,0.95,2.22,0.96,3.68c0,1.2-0.25,2.42-0.75,3.68c-0.49,1.26-1.24,2.63-2.25,4.12
				c-1.01,1.48-2.28,3.2-3.82,5.11l-13.75,17.33l0.06,0.12h29.7v-6.75h-15.36L1051.14,446.07z"/>
			<path class="st0" d="M1099.68,414.58c-0.9-1.22-1.94-2.24-3.12-3.06c-1.17-0.83-2.45-1.46-3.82-1.87
				c-1.38-0.42-2.83-0.63-4.35-0.63c-1.52,0-2.97,0.21-4.35,0.63c-1.37,0.42-2.65,1.05-3.82,1.87c-1.17,0.82-2.21,1.84-3.12,3.06
				c-1.37,1.87-2.39,4.18-3.06,6.93c-0.68,2.75-1.01,6.02-1.01,9.8c0,3.79,0.33,7.05,1.01,9.8c0.67,2.75,1.68,5.06,3.06,6.93
				c0.91,1.22,1.94,2.24,3.12,3.06c1.18,0.83,2.45,1.46,3.82,1.87c1.38,0.42,2.83,0.63,4.35,0.63c1.52,0,2.97-0.21,4.35-0.63
				c1.37-0.42,2.66-1.05,3.82-1.87c1.17-0.82,2.22-1.84,3.12-3.06c1.37-1.87,2.39-4.18,3.07-6.93c0.67-2.75,1-6.02,1-9.8
				c0-3.79-0.33-7.05-1-9.8C1102.07,418.76,1101.05,416.45,1099.68,414.58z M1095.92,436.39c-0.15,1.6-0.42,3.07-0.8,4.38
				c-0.38,1.31-0.89,2.42-1.54,3.33c-0.6,0.82-1.33,1.45-2.19,1.92c-0.87,0.46-1.87,0.7-3.01,0.71c-1.14-0.01-2.13-0.25-3-0.71
				c-0.87-0.47-1.6-1.11-2.2-1.92c-0.66-0.91-1.17-2.01-1.54-3.33c-0.38-1.32-0.64-2.78-0.8-4.38c-0.16-1.6-0.24-3.3-0.23-5.08
				c-0.01-1.78,0.07-3.48,0.23-5.08c0.16-1.61,0.42-3.07,0.8-4.38c0.38-1.32,0.89-2.42,1.54-3.33c0.6-0.82,1.34-1.45,2.2-1.92
				c0.87-0.47,1.86-0.7,3-0.71c1.14,0.01,2.14,0.24,3.01,0.71c0.87,0.47,1.59,1.11,2.19,1.92c0.66,0.91,1.17,2.01,1.54,3.33
				c0.38,1.32,0.65,2.77,0.8,4.38c0.16,1.6,0.24,3.3,0.23,5.08C1096.16,433.09,1096.08,434.79,1095.92,436.39z"/>
			<path class="st0" d="M1122.63,446.07l6.34-7.95c1.6-2,2.96-3.9,4.07-5.67c1.13-1.78,1.98-3.53,2.57-5.24
				c0.59-1.7,0.89-3.45,0.89-5.23c-0.01-2.05-0.39-3.87-1.14-5.48c-0.75-1.6-1.77-2.97-3.1-4.07c-1.33-1.12-2.86-1.96-4.61-2.54
				c-1.75-0.58-3.65-0.88-5.68-0.88c-1.51,0.01-2.92,0.16-4.21,0.45c-1.3,0.29-2.47,0.67-3.53,1.13c-1.06,0.47-1.98,0.98-2.78,1.52
				v7.29c1.07-0.78,2.16-1.42,3.29-1.95c1.13-0.52,2.26-0.92,3.39-1.18c1.13-0.27,2.2-0.4,3.25-0.4c1.49,0,2.79,0.26,3.91,0.77
				c1.12,0.51,1.99,1.26,2.61,2.25c0.63,1,0.95,2.22,0.96,3.68c0,1.2-0.25,2.42-0.75,3.68c-0.49,1.26-1.24,2.63-2.25,4.12
				c-1.01,1.48-2.28,3.2-3.81,5.11l-13.75,17.33l0.06,0.12h29.7v-6.75h-15.36L1122.63,446.07z"/>
		</g>
	</g>
</g>
</svg>
